<?xml version="1.0" encoding="UTF-8" standalone="no"?>
<!-- Created with Inkscape (http://www.inkscape.org/) -->

<svg
   version="1.1"
   id="svg5"
   inkscape:version="1.1 (c68e22c387, 2021-05-23)"
   sodipodi:docname="face-edit.svg"
   width="224"
   height="112.4"
   xmlns:inkscape="http://www.inkscape.org/namespaces/inkscape"
   xmlns:sodipodi="http://sodipodi.sourceforge.net/DTD/sodipodi-0.dtd"
   xmlns="http://www.w3.org/2000/svg"
   xmlns:svg="http://www.w3.org/2000/svg">
  <sodipodi:namedview
     id="namedview7"
     pagecolor="#505050"
     bordercolor="#ffffff"
     borderopacity="1"
     inkscape:pageshadow="0"
     inkscape:pageopacity="0"
     inkscape:pagecheckerboard="1"
     inkscape:document-units="px"
     showgrid="false"
     inkscape:zoom="2.1719924"
     inkscape:cx="114.41108"
     inkscape:window-x="2469"
     inkscape:window-y="-9"
     inkscape:window-maximized="1"
     inkscape:current-layer="layer1"
     fit-margin-top="0"
     fit-margin-left="0"
     fit-margin-right="0"
     fit-margin-bottom="0"
     inkscape:cy="-2.5322373"
     inkscape:window-width="2323"
     inkscape:window-height="1321" />
  <defs
     id="defs2" />
  <g
     inkscape:label="Layer 1"
     inkscape:groupmode="layer"
     id="layer1"
     transform="translate(-88.73735,-82.84285)">
    <g
       id="g32258"
       transform="translate(281.73735,-257.85715)">
      <g
         id="g32167">
	<g
   id="g32135">
		<g
   id="g32131">
			<path
   fill="#e6e6e6"
   d="m -109.2,452 c -14.5,0 -26.3,-11.8 -26.3,-26.3 0,-14.5 11.8,-26.2 26.3,-26.2 14.5,0 26.2,11.8 26.2,26.3 0,14.5 -11.8,26.2 -26.2,26.2 z"
   id="path32127" />

			<path
   fill="#f0f0f0"
   d="m -109.2,400.5 c 13.9,0 25.3,11.3 25.3,25.2 0,13.9 -11.3,25.3 -25.3,25.3 -14,0 -25.3,-11.3 -25.3,-25.2 0,-13.9 11.3,-25.3 25.3,-25.3 m 0,-2 c -15,0 -27.3,12.2 -27.3,27.2 0,15 12.2,27.3 27.3,27.3 15.1,0 27.2,-12.2 27.2,-27.2 0,-15 -12.2,-27.3 -27.2,-27.3 z"
   id="path32129" />

		</g>

		<path
   fill="#009898"
   d="m -109.2,406.9 c -10.4,0 -18.9,8.5 -18.9,18.9 0,10.4 8.5,18.9 18.9,18.9 10.4,0 18.9,-8.5 18.9,-18.9 -0.1,-10.5 -8.5,-18.9 -18.9,-18.9 z m 0,34.9 c -8.9,0 -16,-7.2 -16,-16 0,-8.9 7.2,-16 16,-16 8.8,0 16,7.2 16,16 0,8.8 -7.2,16 -16,16 z"
   id="path32133" />

	</g>

	<g
   id="g32145">
		<g
   id="g32141">
			<path
   fill="#d5d808"
   d="m -165.8,452 c -14.4,0 -26.2,-11.7 -26.2,-26.2 0,-14.5 11.8,-26.2 26.3,-26.2 14.5,0 26.3,11.8 26.3,26.2 0,14.4 -11.9,26.2 -26.4,26.2 z"
   id="path32137" />

			<path
   fill="#e5e80a"
   d="m -165.7,400.5 c 13.9,0 25.3,11.3 25.3,25.2 0,13.9 -11.3,25.3 -25.3,25.3 -14,0 -25.3,-11.3 -25.3,-25.2 0,-13.9 11.3,-25.3 25.3,-25.3 m 0,-2 c -15.1,0 -27.3,12.3 -27.3,27.3 0,15 12.2,27.3 27.3,27.3 15.1,0 27.3,-12.2 27.3,-27.3 -0.1,-15 -12.3,-27.3 -27.3,-27.3 z"
   id="path32139" />

		</g>

		<polygon
   fill="#824e20"
   points="-151.4,438.1 -163.7,425.8 -151.4,413.4 -153.4,411.4 -165.7,423.8 -178.1,411.4 -180.1,413.4 -167.8,425.8 -180.1,438.1 -178.1,440.2 -165.7,427.8 -153.4,440.2 "
   id="polygon32143" />

	</g>

	<g
   id="g32155">
		<g
   id="g32151">
			<path
   fill="#e6e6e6"
   d="m -52.7,452 c -14.5,0 -26.2,-11.8 -26.2,-26.3 0,-14.5 11.8,-26.2 26.2,-26.2 14.4,0 26.3,11.8 26.3,26.2 0,14.4 -11.9,26.3 -26.3,26.3 z"
   id="path32147" />

			<path
   fill="#f0f0f0"
   d="m -52.7,400.5 c 13.9,0 25.3,11.3 25.3,25.2 0,13.9 -11.3,25.3 -25.3,25.3 -14,0 -25.3,-11.3 -25.3,-25.2 0,-13.9 11.3,-25.3 25.3,-25.3 m 0,-2 c -15,0 -27.3,12.2 -27.3,27.2 0,15 12.2,27.3 27.3,27.3 15.1,0 27.3,-12.2 27.3,-27.3 0,-15.1 -12.3,-27.2 -27.3,-27.2 z"
   id="path32149" />

		</g>

		<path
   fill="#079647"
   d="m -41.2,411.4 h -23 -2.8 v 2.8 23 2.8 h 2.8 23 2.8 v -2.8 -23 -2.8 z m 0,25.9 h -23 v -23 h 23 z"
   id="path32153" />

	</g>

	<g
   id="g32165">
		<g
   id="g32161">
			<path
   fill="#156abf"
   d="m 3.7,452 c -14.5,0 -26.3,-11.8 -26.3,-26.3 0,-14.5 11.8,-26.2 26.3,-26.2 14.5,0 26.3,11.8 26.3,26.3 C 30,440.3 18.2,452 3.7,452 Z"
   id="path32157" />

			<path
   fill="#1672ce"
   d="m 3.8,400.5 c 13.9,0 25.3,11.3 25.3,25.2 0,13.9 -11.3,25.3 -25.3,25.3 -14,0 -25.3,-11.3 -25.3,-25.2 0,-13.9 11.3,-25.3 25.3,-25.3 m 0,-2 c -15,0 -27.3,12.2 -27.3,27.2 0,15 12.2,27.3 27.3,27.3 15.1,0 27.2,-12.2 27.2,-27.2 0,-15 -12.2,-27.3 -27.2,-27.3 z"
   id="path32159" />

		</g>

		<path
   fill="#e6e6e6"
   d="m 19.7,433.8 -16,-27.6 -16,27.6 -1.6,2.8 h 3.3 14.3 14.3 3.3 z m -15.9,0 H -8.9 l 12.7,-21.9 12.7,21.9 z"
   id="path32163" />

	</g>

</g>
      <g
         id="g32209">
	<g
   id="g32177">
		<g
   id="g32173">
			<path
   fill="#1a1a1a"
   d="m -109.2,394.2 c -14.5,0 -26.3,-11.8 -26.3,-26.3 0,-14.5 11.8,-26.2 26.3,-26.2 14.5,0 26.2,11.8 26.2,26.2 0,14.4 -11.8,26.3 -26.2,26.3 z"
   id="path32169" />

			<path
   fill="#0f0f0f"
   d="m -109.2,342.7 c 13.9,0 25.2,11.3 25.2,25.3 0,14 -11.3,25.2 -25.2,25.2 -13.9,0 -25.3,-11.3 -25.3,-25.2 0,-13.9 11.3,-25.3 25.3,-25.3 m 0,-2 c -15,0 -27.3,12.2 -27.3,27.3 0,15.1 12.2,27.3 27.3,27.3 15.1,0 27.2,-12.3 27.2,-27.3 0,-15 -12.2,-27.3 -27.2,-27.3 z"
   id="path32171" />

		</g>

		<path
   fill="#f16667"
   d="m -109.2,349.1 c -10.4,0 -18.9,8.5 -18.9,18.9 0,10.4 8.5,18.9 18.9,18.9 10.4,0 18.9,-8.5 18.9,-18.9 -0.1,-10.5 -8.5,-18.9 -18.9,-18.9 z m 0,34.9 c -8.9,0 -16,-7.2 -16,-16 0,-8.9 7.2,-16 16,-16 8.8,0 16,7.2 16,16 0,8.8 -7.2,16 -16,16 z"
   id="path32175" />

	</g>

	<g
   id="g32187">
		<g
   id="g32183">
			<path
   fill="#1a1a1a"
   d="m -165.8,394.2 c -14.4,0 -26.2,-11.8 -26.2,-26.2 0,-14.4 11.8,-26.3 26.2,-26.3 14.4,0 26.3,11.8 26.3,26.3 0,14.5 -11.8,26.2 -26.3,26.2 z"
   id="path32179" />

			<path
   fill="#0f0f0f"
   d="m -165.7,342.7 c 13.9,0 25.3,11.3 25.3,25.3 0,14 -11.4,25.2 -25.3,25.2 -13.9,0 -25.3,-11.3 -25.3,-25.2 0,-13.9 11.3,-25.3 25.3,-25.3 m 0,-2 c -15.1,0 -27.3,12.2 -27.3,27.3 0,15 12.2,27.3 27.3,27.3 15.1,0 27.3,-12.2 27.3,-27.3 -0.1,-15.1 -12.3,-27.3 -27.3,-27.3 z"
   id="path32181" />

		</g>

		<polygon
   fill="#7fb1df"
   points="-151.4,380.3 -163.7,367.9 -151.4,355.6 -153.4,353.6 -165.7,365.9 -178.1,353.6 -180.1,355.6 -167.8,367.9 -180.1,380.3 -178.1,382.3 -165.7,370 -153.4,382.3 "
   id="polygon32185" />

	</g>

	<g
   id="g32197">
		<g
   id="g32193">
			<path
   fill="#1a1a1a"
   d="m -52.7,394.9 c -14.5,0 -26.2,-11.8 -26.2,-26.2 0,-14.4 11.8,-26.3 26.2,-26.3 14.4,0 26.3,11.8 26.3,26.3 0,14.5 -11.9,26.2 -26.3,26.2 z"
   id="path32189" />

			<path
   fill="#0f0f0f"
   d="m -52.7,343.4 c 13.9,0 25.3,11.3 25.3,25.3 0,14 -11.3,25.2 -25.3,25.2 -14,0 -25.3,-11.3 -25.3,-25.3 0,-14 11.3,-25.2 25.3,-25.2 m 0,-2 c -15,0 -27.3,12.2 -27.3,27.3 0,15.1 12.2,27.2 27.3,27.2 15.1,0 27.3,-12.2 27.3,-27.2 0,-15 -12.3,-27.3 -27.3,-27.3 z"
   id="path32191" />

		</g>

		<path
   fill="#cb79b1"
   d="m -41.2,354.2 h -23 -2.8 v 2.8 23 2.8 h 2.8 23 2.8 v -2.8 -23 -2.8 c 0,0 -2.8,0 -2.8,0 z m 0,25.9 h -23 v -23 h 23 z"
   id="path32195" />

	</g>

	<g
   id="g32207">
		<g
   id="g32203">
			<path
   fill="#1a1a1a"
   d="m 3.7,395.5 c -14.5,0 -26.3,-11.8 -26.3,-26.3 0,-14.5 11.8,-26.3 26.3,-26.3 14.5,0 26.3,11.9 26.3,26.4 0,14.5 -11.8,26.2 -26.3,26.2 z"
   id="path32199" />

			<path
   fill="#0f0f0f"
   d="m 3.8,344 c 13.9,0 25.3,11.3 25.3,25.3 0,14 -11.3,25.3 -25.3,25.3 -14,0 -25.3,-11.3 -25.3,-25.3 0,-14 11.3,-25.3 25.3,-25.3 m 0,-2 c -15,0 -27.3,12.2 -27.3,27.3 0,15.1 12.2,27.3 27.3,27.3 C 18.9,396.6 31,384.3 31,369.3 31,354.3 18.8,342 3.8,342 Z"
   id="path32201" />

		</g>

		<path
   fill="#66c194"
   d="m 19.7,377.3 -16,-27.6 -16,27.6 -1.6,2.8 h 3.3 14.3 14.3 3.3 z m -15.9,0 H -8.9 l 12.7,-21.9 12.7,21.9 z"
   id="path32205" />

	</g>

</g>
    </g>
  </g>
</svg>
